<?xml version="1.0" encoding="UTF-8"?>
<svg width="11px" height="10px" viewBox="0 0 11 10" version="1.1" xmlns="http://www.w3.org/2000/svg" xmlns:xlink="http://www.w3.org/1999/xlink">
    <!-- Generator: Sketch 50.2 (55047) - http://www.bohemiancoding.com/sketch -->
    <title>Group 3</title>
    <desc>Created with Sketch.</desc>
    <defs></defs>
    <g id="Page-1" stroke="none" stroke-width="1" fill="none" fill-rule="evenodd">
        <g id="1440_Landing" transform="translate(-596.000000, -3787.000000)">
            <g id="footer" transform="translate(0.000000, 3762.000000)">
                <g id="Group-5" transform="translate(596.000000, 23.000000)">
                    <g id="Group-3" transform="translate(0.000000, 2.000000)">
                        <polygon id="Clip-2" points="0 0 10.9998778 0 10.9998778 9.52059778 0 9.52059778"></polygon>
                        <path d="M10.9286222,-2.44444444e-05 L0.0713777778,-2.44444444e-05 C0.0319,-2.44444444e-05 0,0.0319977778 0,0.0713533333 L0,7.38610889 C0,7.42546444 0.0319,7.45748667 0.0713777778,7.45748667 L7.16185556,7.45748667 L9.68537778,9.50470889 C9.69833333,9.51522 9.71434444,9.52059778 9.73035556,9.52059778 C9.74086667,9.52059778 9.75125556,9.51827556 9.76103333,9.51363111 C9.78596667,9.50189778 9.80173333,9.47672 9.80173333,9.44934222 L9.80173333,7.45748667 L10.9285,7.45748667 C10.9679778,7.45748667 10.9998778,7.42546444 10.9998778,7.38610889 L10.9998778,0.0713533333 C11,0.0319977778 10.9681,-2.44444444e-05 10.9286222,-2.44444444e-05" id="Fill-1" fill="#FFFFFF"></path>
                    </g>
                </g>
            </g>
        </g>
    </g>
</svg>