<?xml version="1.0" encoding="UTF-8"?>
<svg width="9px" height="17px" viewBox="0 0 9 17" version="1.1" xmlns="http://www.w3.org/2000/svg" xmlns:xlink="http://www.w3.org/1999/xlink">
    <!-- Generator: Sketch 50.2 (55047) - http://www.bohemiancoding.com/sketch -->
    <title>Group 10</title>
    <desc>Created with Sketch.</desc>
    <defs></defs>
    <g id="Page-1" stroke="none" stroke-width="1" fill="none" fill-rule="evenodd">
        <g id="1440_Landing" transform="translate(-60.000000, -3783.000000)">
            <g id="footer" transform="translate(0.000000, 3762.000000)">
                <g id="Group-10" transform="translate(60.000000, 21.000000)">
                    <g id="I-logo" transform="translate(0.000000, 0.033556)">
                        <polygon id="Clip-2" points="5.41666667e-05 0.23725 5.12170276 0.23725 5.12170276 15.9286292 5.41666667e-05 15.9286292"></polygon>
                        <path d="M5.41666667e-05,15.9286292 L1.47745,5.38942083 L4.3147,5.38942083 L2.84867917,15.9286292 L5.41666667e-05,15.9286292 Z M3.60484583,0.2370875 C4.58417917,0.2370875 5.24067917,1.02981667 5.1036375,2.0148375 C4.97255417,2.95760833 4.09505417,3.7503375 3.11436667,3.7503375 C2.155075,3.7503375 1.47745,2.95760833 1.60961667,2.0148375 C1.7480125,1.02981667 2.64690833,0.2370875 3.60484583,0.2370875 Z" id="Fill-1" fill="#FFFFFF"></path>
                        <path d="M7.23953945,12.7164438 C8.21887278,12.7164438 8.88403945,13.5089021 8.75783111,14.4939229 C8.63703945,15.4369646 7.76820611,16.2294229 6.78751861,16.2294229 C5.82822695,16.2294229 5.14193528,15.4369646 5.26408111,14.4939229 C5.39137278,13.5089021 6.28160195,12.7164438 7.23953945,12.7164438" id="Fill-16" fill="#FFFFFF"></path>
                    </g>
                </g>
            </g>
        </g>
    </g>
</svg>