<?xml version="1.0" encoding="UTF-8"?>
<svg width="65px" height="22px" viewBox="0 0 65 22" version="1.1" xmlns="http://www.w3.org/2000/svg" xmlns:xlink="http://www.w3.org/1999/xlink">
    <!-- Generator: Sketch 51.3 (57544) - http://www.bohemiancoding.com/sketch -->
    <title>Italic-logo-black</title>
    <desc>Created with Sketch.</desc>
    <defs></defs>
    <g id="Page-1" stroke="none" stroke-width="1" fill="none" fill-rule="evenodd">
        <g id="1440_Landing" transform="translate(-60.000000, -30.000000)">
            <g id="NAV" transform="translate(60.000000, 30.000000)">
                <g id="Italic-logo-black">
                    <g id="Group-3" transform="translate(0.000000, 0.044742)">
                        <polygon id="Clip-2" points="7.22222222e-05 0.316333333 6.82893701 0.316333333 6.82893701 21.2381722 7.22222222e-05 21.2381722"></polygon>
                        <path d="M7.22222222e-05,21.2381722 L1.96993333,7.18589444 L5.75293333,7.18589444 L3.79823889,21.2381722 L7.22222222e-05,21.2381722 Z M4.80646111,0.316116667 C6.11223889,0.316116667 6.98757222,1.37308889 6.80485,2.68645 C6.63007222,3.94347778 5.46007222,5.00045 4.15248889,5.00045 C2.87343333,5.00045 1.96993333,3.94347778 2.14615556,2.68645 C2.33068333,1.37308889 3.52921111,0.316116667 4.80646111,0.316116667 Z" id="Fill-1" fill="#000000"></path>
                    </g>
                    <path d="M12.7327417,7.23081667 L15.5486861,7.23081667 L15.0893528,10.6010667 L12.2708806,10.6010667 L11.4641583,16.48465 C11.2958806,17.7127889 11.8119083,18.1125389 12.8959639,18.1125389 C13.3524083,18.1125389 13.8738528,18.0554833 14.0814917,17.9987889 L13.6532139,21.1400944 C13.2910194,21.2830944 12.5785472,21.4827889 11.4645194,21.4827889 C8.72296389,21.4827889 7.23410278,19.8545389 7.60893611,17.1418722 L8.51243611,10.6010667 L8.97826944,7.23081667 L9.55821389,3.03253889 L13.3083528,3.03253889 L12.7327417,7.23081667 Z" id="Fill-4" fill="#000000"></path>
                    <path d="M24.8508,15.5993139 L24.9342167,14.9709806 L21.7051611,15.4563139 C20.7164389,15.5993139 19.8739667,16.1420639 19.7277167,17.2275639 C19.6161333,18.0555917 20.1076056,18.8554528 21.3350222,18.8554528 C22.9329389,18.8554528 24.5196611,18.0841194 24.8508,15.5993139 M20.6687722,13.1997306 L24.1849111,12.6862306 C24.9977722,12.5717583 25.3076056,12.1720083 25.3722444,11.6863139 C25.5051333,10.6867583 24.84755,9.85836944 23.2532444,9.85836944 C21.6022444,9.85836944 20.5492444,10.9149806 20.2697444,12.1434806 L17.0056611,11.4295639 C17.5318,9.23003611 19.8801056,6.80264722 23.6342167,6.80264722 C28.0708278,6.80264722 29.3878,9.31561944 29.01405,12.1434806 L28.1004389,19.0551472 C28.0022167,19.7979528 27.9559944,20.7978694 27.9773,21.2828417 L24.4933,21.2828417 C24.4568278,20.9116194 24.5023278,20.1406472 24.57455,19.5978972 C23.7125778,20.7115639 22.2406889,21.6829528 20.1556333,21.6829528 C17.1566056,21.6829528 15.6041889,19.6545917 15.9028278,17.4561472 C16.2440778,14.9424528 18.2861611,13.5427861 20.6687722,13.1997306" id="Fill-6" fill="#000000"></path>
                    <polygon id="Fill-8" fill="#000000" points="31.0455528 21.2829139 33.760025 0.604247222 37.5358028 0.604247222 34.8440806 21.2829139"></polygon>
                    <path d="M38.0833556,21.2829139 L39.8993833,7.23063611 L43.6823833,7.23063611 L41.8818833,21.2829139 L38.0833556,21.2829139 Z M42.6608,0.360858333 C43.9665778,0.360858333 44.8531056,1.41783056 44.6848278,2.73119167 C44.5241333,3.98821944 43.3656889,5.04519167 42.0581056,5.04519167 C40.77905,5.04519167 39.8639944,3.98821944 40.0264944,2.73119167 C40.1965778,1.41783056 41.38355,0.360858333 42.6608,0.360858333 Z" id="Fill-10" fill="#000000"></path>
                    <path d="M62.712975,17.0275444 C64.0187528,17.0275444 64.9056417,18.0841556 64.7373639,19.3975167 C64.5763083,20.6549056 63.4178639,21.7115167 62.1102806,21.7115167 C60.831225,21.7115167 59.9161694,20.6549056 60.0790306,19.3975167 C60.2487528,18.0841556 61.435725,17.0275444 62.712975,17.0275444" id="Fill-16" fill="#000000"></path>
                    <path d="M48.9660528,14.256775 C48.6446639,16.7989972 50.1190806,18.2268306 52.0593306,18.2268306 C53.9995806,18.2268306 55.1298583,16.9416361 55.5787194,15.8561361 L58.7774417,16.9701639 C57.8605806,19.3119694 55.3645806,21.7115528 51.6227472,21.7115528 C47.481525,21.7115528 44.6258583,18.569525 45.1758306,14.256775 C45.7286917,9.91585833 49.3105528,6.80235833 53.3777472,6.80235833 C57.1885528,6.80235833 59.0565806,9.17305278 59.3617194,11.5437472 L55.830775,12.6859417 C55.6346917,11.5148583 54.9016361,10.3152472 53.0224139,10.3152472 C51.0868583,10.3152472 49.2874417,11.7149139 48.9660528,14.256775" id="Fill-13" fill="#000000"></path>
                </g>
            </g>
        </g>
    </g>
</svg>