<?xml version="1.0" encoding="UTF-8"?>
<svg width="14px" height="9px" viewBox="0 0 14 9" version="1.1" xmlns="http://www.w3.org/2000/svg" xmlns:xlink="http://www.w3.org/1999/xlink">
    <!-- Generator: Sketch 50.2 (55047) - http://www.bohemiancoding.com/sketch -->
    <title>Group 3</title>
    <desc>Created with Sketch.</desc>
    <defs></defs>
    <g id="Page-1" stroke="none" stroke-width="1" fill="none" fill-rule="evenodd">
        <g id="1440_Landing" transform="translate(-467.000000, -3788.000000)" fill="#FFFFFF">
            <g id="footer" transform="translate(0.000000, 3762.000000)">
                <g id="Group-18" transform="translate(467.000000, 23.000000)">
                    <g id="Group-3" transform="translate(0.000000, 3.000000)">
                        <path d="M0.0106666667,0.864833333 C0.00483333333,0.908833333 0.000333333333,0.954666667 0.000333333333,1.00016667 L0.000333333333,8.00033333 C0.000333333333,8.55433333 0.446333333,9.00033333 1.00016667,9.00033333 L12.3336667,9.00033333 C12.8876667,9.00033333 13.3336667,8.55433333 13.3336667,8.00033333 L13.3336667,1.00016667 C13.3336667,0.954666667 13.329,0.908833333 13.3231667,0.864833333 L7.69816667,5.92216667 C7.11233333,6.449 6.211,6.44983333 5.62533333,5.92216667 L0.0106666667,0.864833333 Z M1.00016667,0.000333333333 C0.8675,0.000333333333 0.740833333,0.0266666667 0.625333333,0.0731666667 L6.292,5.17733333 C6.53816667,5.39916667 6.78483333,5.39933333 7.0315,5.17733333 L12.7086667,0.0731666667 C12.5928333,0.0266666667 12.4661667,0.000333333333 12.3336667,0.000333333333 L1.00016667,0.000333333333 Z" id="Fill-1"></path>
                    </g>
                </g>
            </g>
        </g>
    </g>
</svg>