<?xml version="1.0" encoding="UTF-8"?>
<svg width="12px" height="12px" viewBox="0 0 12 12" version="1.1" xmlns="http://www.w3.org/2000/svg" xmlns:xlink="http://www.w3.org/1999/xlink">
    <!-- Generator: Sketch 50.2 (55047) - http://www.bohemiancoding.com/sketch -->
    <title>Fill 1</title>
    <desc>Created with Sketch.</desc>
    <defs></defs>
    <g id="Page-1" stroke="none" stroke-width="1" fill="none" fill-rule="evenodd">
        <g id="1440_Landing" transform="translate(-759.000000, -3786.000000)" fill="#FFFFFF">
            <g id="footer" transform="translate(0.000000, 3762.000000)">
                <g id="Group-4" transform="translate(759.000000, 23.000000)">
                    <path d="M11.9943686,10.4704 C11.960258,10.3006667 11.8545951,10.1612 11.676314,10.0508 L9.22474809,8.60173333 L9.21208986,8.60173333 C9.12734635,8.55093333 9.01328904,8.52546667 8.86911847,8.52546667 C8.66592058,8.52546667 8.48817239,8.59346667 8.33560742,8.72866667 L7.61129022,9.46626667 C7.59450141,9.4832 7.56678655,9.49786667 7.52881186,9.51066667 C7.49083718,9.52333333 7.46325556,9.5296 7.44633351,9.5296 L7.28777253,9.49786667 C7.18157665,9.4768 7.02914492,9.41546667 6.8303441,9.3136 C6.63114355,9.212 6.38344199,9.05306667 6.08710618,8.83706667 C5.79050388,8.62093333 5.45192956,8.31813333 5.07085024,7.92786667 C4.68124327,7.5468 4.38051039,7.20986667 4.16865161,6.91746667 C3.95705931,6.6252 3.80023051,6.3772 3.69869819,6.17386667 C3.58011057,5.94506667 3.50389471,5.74146667 3.4700506,5.56373333 C3.4700506,5.53826667 3.47631309,5.50626667 3.48897132,5.46826667 C3.50176279,5.43 3.51655294,5.40253333 3.53334175,5.3856 L4.15599338,4.76266667 C4.26618659,4.65253333 4.33813863,4.51666667 4.37171625,4.35586667 C4.40582685,4.19466667 4.38464097,4.04666667 4.30842511,3.91106667 L2.94933102,1.33026667 C2.89017046,1.23706667 2.81808517,1.15893333 2.7334749,1.09533333 C2.64859815,1.03146667 2.55132965,1 2.44126967,1 C2.28857146,1 2.15332827,1.05933333 2.03474065,1.178 L0.345200161,2.8684 C0.260456648,2.94493333 0.188371363,3.04426667 0.129344042,3.16733333 C0.0700502312,3.29 0.031942299,3.4108 0.0150202452,3.5296 C0.0150202452,3.54653333 0.0106231761,3.63133333 0.00209552695,3.7836 C-0.00629887769,3.9364 0.0104899316,4.14613333 0.0531281774,4.41293333 C0.0953666896,4.68 0.175713134,4.99786667 0.294434,5.3664 C0.413154865,5.73493333 0.590903052,6.146 0.82794505,6.59946667 C1.06525354,7.05293333 1.3785114,7.54653333 1.76811837,8.08053333 C2.15772534,8.6144 2.64873139,9.17373333 3.2416695,9.7584 C3.98690608,10.5124 4.69003741,11.106 5.35053048,11.5381333 C6.0111568,11.9702667 6.60156326,12.2945333 7.12268257,12.5105333 C7.64340215,12.7265333 8.08390853,12.8624 8.44393521,12.9173333 C8.80382866,12.9725333 9.06432169,13 9.22514782,13 C9.29296928,13 9.34799927,12.9977333 9.39023778,12.9936 C9.43260954,12.9894667 9.45819249,12.9872 9.46645365,12.9872 C9.58504127,12.9702667 9.7057608,12.932 9.82861225,12.8726667 C9.95146369,12.8134667 10.0508641,12.7413333 10.1272132,12.6565333 L11.8167537,10.9788 C11.960258,10.8346667 12.0195519,10.6653333 11.9943686,10.4704" id="Fill-1"></path>
                </g>
            </g>
        </g>
    </g>
</svg>